<svg width="787" height="691" viewBox="0 0 787 691" fill="none" xmlns="http://www.w3.org/2000/svg">
<path d="M331.579 273.651C328.037 266.927 324.407 260.806 320.56 255.743C305.779 236.293 288.615 218.422 275.567 197.681C265.043 180.955 262.238 159.814 256.48 141.11C250.939 123.108 249.37 106.496 246.701 87.8511C242.978 61.8432 240.933 44.0459 253.924 20.3951C259.951 9.42367 266.435 -3.15815 280.69 1.33128C292.457 5.03705 304.263 14.6471 309.648 25.6555C320.315 47.4606 329.701 69.5201 337.124 92.6194C343.179 111.461 351.339 129.196 357.878 147.721C360.868 156.192 363.853 166.807 369.238 174.046C380.784 189.565 394.175 202.996 403.389 220.359C407.218 227.576 410.168 235.013 412.801 242.554C412.093 236.292 411.321 230.035 410.404 223.789C406.962 200.32 411.146 186.188 419.403 163.861C423.815 151.932 421.444 141.017 424.385 129.034C425.629 123.965 424.962 118.567 426.041 113.271C426.661 110.225 427.954 105.792 427.868 102.772C427.691 96.5725 431.586 91.8244 434.344 86.4794C440.248 75.0359 447.465 64.6397 455.503 54.6176C459.754 49.318 464.926 38.4769 472.948 44.4364C482.255 51.351 496.831 60.0888 502.096 70.501C509.892 85.918 522.557 101.943 524.821 119.492C527.042 136.712 527.785 155.793 525.2 172.902C521.821 195.27 512.733 216.294 505.472 237.532C498.171 258.886 495.495 281.663 488.256 302.833C483.24 317.504 476.441 331.565 473.715 346.84C473.487 348.114 473.247 349.287 472.952 350.401C491.478 323.978 530.21 270.057 545.546 245.256C562.62 217.643 593.115 212.786 623.931 218.761C637.185 221.331 650.159 222.499 663.545 225.385C674.146 227.67 684.041 231.156 694.322 234.198C703.642 236.956 717.28 236.311 725.159 242.328C728.592 244.95 733.881 247.659 731.303 252.628C728.677 257.691 723.809 263.822 718.406 265.968C704.291 271.575 693.846 280.888 680.808 288.796C665.324 298.187 647.625 301.896 632.174 311.075C621.659 317.322 612.162 326.906 602.488 334.389C594.382 340.658 585.788 346.518 576.939 351.989C589.928 350.151 602.872 348.134 616.05 348.074C636.84 347.98 657.799 353.41 678.467 353.209C695.201 353.046 710.399 361.959 726.237 367.473C740.619 372.48 753.464 381.005 767.993 385.581C772.254 386.923 783.686 394.624 785.735 399.078C788.766 405.668 781.738 417.363 777.882 422.568C772.676 429.596 760.418 434.296 752.401 437.291C733.349 444.408 714.792 440.744 695.161 442.901C684.818 444.037 674.548 446.499 664.337 448.454C653.899 450.454 643.304 449.239 632.745 449.486C628.465 449.586 624.377 450.126 620.326 450.808C624.358 452.976 628.297 455.273 632.095 457.755C661.281 476.824 683.559 502.283 707.817 527.278C719.899 539.726 731.751 552.252 742.662 565.724C751.015 576.039 755.02 583.723 746.402 596.07C740.3 604.811 733.289 604.797 722.8 605.708C710.056 606.816 697.192 601.274 685.42 597.213C667.296 590.963 648.896 585.029 631.5 576.918C611.344 567.521 591.033 558.538 570.807 549.238C552.975 541.038 537.324 531.75 520.779 521.199C503.267 510.03 485.569 498.452 469.362 485.453C457.313 475.789 445.63 464.965 432.095 457.638C431.485 457.309 430.111 456.281 428.576 455.075C458.804 480.76 482.47 512.109 511.088 539.674C532.435 560.235 558.736 578.523 557.106 610.766C556.721 618.384 554.959 629.066 550.174 635.239C533.529 656.716 515.793 660.082 490.332 652.922C476.569 649.052 464.562 638.33 453.148 630.179C438.711 619.871 423.243 608.336 415.864 591.73C403.434 563.759 400.909 533.182 391.492 504.304C386.375 488.614 377.223 475.021 371.707 459.868C370.113 455.492 367.585 452.051 366.933 447.25C365.735 438.429 368.195 460.554 368.283 462.006C370.32 495.465 371.633 529.352 380.473 561.88C389.584 595.403 388.284 630.523 392.05 664.802L392.084 665.111C392.715 670.818 395.185 693.145 384.268 690.791C353.974 684.26 319.757 658.704 301.644 634.288C286.692 614.134 267.939 586.205 267.736 559.969C267.513 531.026 266.028 503.976 279.857 477.884C298.144 443.38 322.348 412.424 346.698 382.065L322.089 412.747C299.034 441.491 274.286 468.029 248.84 494.637C230.886 513.411 214.752 533.537 194.483 549.927C190.75 552.946 182.87 561.229 177.23 561.849C176.157 561.967 174.915 561.19 173.988 561.934C163.335 570.481 151.525 574.439 138.178 570.203C123.855 565.658 116.265 554.985 112.841 540.604C110.489 530.725 116.964 521.004 121.443 512.831C129.17 498.73 136.369 485.393 146.45 472.824C161.739 453.761 179.491 436.677 198.838 421.815C203.524 418.215 209.087 416.594 214.269 413.943C190.857 416.318 167.275 421.077 144.146 424.096C132.243 425.65 76.5126 426.522 85.7702 399.006C100.874 354.113 152.616 343.066 193.74 335.32C213.951 331.513 235.627 333.523 256.093 331.858C266.542 331.008 276.791 329.246 287.183 328.105C287.953 328.02 290.269 328.377 289.503 328.256C272.957 325.64 256.311 325.872 239.789 322.2C220.687 317.954 202.076 313.136 183.259 307.747C144.891 296.759 103.404 293.845 64.0428 290.018C56.3829 289.273 47.899 287.308 40.5792 284.872C31.7903 281.947 22.3601 283.146 13.5466 279.305C0.766471 273.736 -1.58741 267.613 3.1362 254.841C5.0976 249.537 15.3422 248.262 19.7152 246.651C29.5052 243.045 40.8311 239.372 51.3459 238.57C61.6178 237.787 74.3016 241.777 84.1793 243.906C106.897 248.804 129.154 254.065 152.493 255.236C175.856 256.407 197.806 258.786 220.183 265.821C231.896 269.503 242.269 276.119 253.867 280.141C268.638 285.264 269.092 295.86 282.544 303.141C286.951 305.527 313.298 316.332 300.478 306.049C278.411 288.351 254.066 271.723 228.952 258.693C198.951 243.128 173 216.99 146.648 195.854C136.243 187.51 125.042 179.667 115.282 170.575C106.728 162.607 95.7443 141.288 97.9465 129.325C100.72 114.261 123.046 112.633 134.569 113.65C151.886 115.177 166.996 122.832 181.501 132.003C195.861 141.082 208.746 153.366 222.005 164.001C233.004 172.822 246.18 183.613 254.539 194.978C261.007 203.771 271.422 211.437 279.288 219.223C290.157 229.981 300.739 242.532 312.637 252.075C320.044 258.016 324.832 267.118 331.579 273.651Z" fill="#FF8BCA"/>
</svg>
