<svg width="681" height="719" viewBox="0 0 681 719" fill="none" xmlns="http://www.w3.org/2000/svg">
<path d="M175.005 145.589C170.983 134.161 168.743 122.257 166.544 110.319C165.835 106.469 164.755 102.478 164.597 98.5524C164.414 93.9975 166.538 89.5116 167.408 85.0831C168.443 79.8083 170.6 74.8352 172.478 69.8198C174.379 64.7413 175.635 58.7552 179.07 54.4415C187.869 43.3902 198.8 32.72 209.041 22.963C217.473 14.9292 227.682 9.6436 239.087 7.45363C257.72 3.87577 277.749 -0.810262 296.807 0.956537C307.053 1.90639 318.169 3.37762 325.018 11.6886C345.77 36.8717 342.797 72.1432 342.227 102.433C341.914 119.021 341.533 135.91 339.969 152.12C339.515 156.831 340.08 153.352 340.64 150.674C342.301 142.734 347.259 135.022 350.759 127.812C358.102 112.683 369.169 101.473 381.137 89.8653C393.898 77.488 409.898 72.1989 426.803 67.8967C441.465 64.1655 456.521 61.1152 471.506 58.9471C484.661 57.0436 496.829 64.8446 509.056 68.6204C520.19 72.0588 526.115 77.9216 530.137 88.8224C535.351 102.952 538.33 119.402 539.797 134.386C542.266 159.61 524.444 191.096 504.006 205.185C496.706 210.217 488.968 214.159 481.377 218.777C479.803 219.735 477.446 221.489 475.04 223.292C477.582 222.462 479.998 221.782 481.276 221.221L482.119 220.851C491.669 216.657 501.27 212.441 510.342 207.27C517.806 203.015 525.028 197.841 533.558 196.27C542.652 194.595 551.211 192.537 560.502 193.843C574.822 195.855 590.466 194.88 604.336 199.328C622.137 205.037 636.756 212.294 649.716 226.077C661.22 238.313 672.54 251.252 676.747 268.111C678.552 275.342 679.954 283.18 680.827 290.562C681.48 296.085 679.266 301.605 679.978 307.197C680.546 311.66 679.622 316.627 679.001 321.045C678.048 327.826 677.447 336.231 673.513 342.118C668.894 349.029 662.443 353.718 655.67 358.355C637.009 371.132 613.44 370.686 591.978 366.834C574.556 363.708 559.335 359.132 543.375 351.315C541.872 350.579 525.374 341.575 532.644 348.111C547.81 361.747 565.575 371.996 580.478 386.093C586.539 391.825 592.645 397.586 598.973 403.023C602.161 405.762 606.223 407.516 609.161 410.461C611.609 412.913 614.487 414.574 616.914 417.245C625.524 426.72 633.45 433.05 638.761 444.296C646.351 460.365 648.5 466.867 651.694 484.211C652.779 490.101 656.206 498.618 659.417 516.052C659.605 527.167 656.678 533.014 656.12 538.549C652.581 550.574 648.075 565.482 637.12 570.046C605.579 583.188 572.861 575.887 541.337 567.075C536.619 565.756 531.456 565.4 526.978 563.326C521.479 560.779 516.905 556.282 512.346 552.408C507.387 548.194 499.615 544.946 496.467 538.909C494.446 535.032 489.916 531.274 486.796 528.289C481.153 522.892 486.614 534.949 487.239 537.577C488.252 541.842 489.873 546.194 490.647 550.397C491.427 554.634 497.155 593.435 499.739 630.013C498.581 691.091 420.746 691.507 384.159 646.274C363.035 613.768 351.502 586.147 350.072 578.933C350.014 578.642 348.162 573.486 348.504 575.805C349.307 581.252 350.743 586.474 350.393 592.046C349.794 601.562 347.712 611.242 342.883 619.498C340.551 623.483 339.85 629.971 338.476 634.474C334.489 647.537 327.725 659.174 320.895 670.924L320.594 671.442C312.125 686.012 303.022 696.273 289.808 706.873C286.019 709.912 280.848 711.438 276.271 712.673C269.906 714.391 263.278 715.287 256.8 716.48C251.285 717.495 245.406 719.179 239.778 718.016C233.423 716.703 228.193 710.881 225.718 705.119C224.036 701.201 220.596 698.642 217.591 695.703C211.142 689.395 204.251 683.561 197.682 677.38C189.186 669.385 179.691 660.421 173.545 650.465C168.389 642.112 166.649 633.971 163.839 624.696C159.15 609.218 152.586 590.988 156.055 574.654C157.217 569.183 158.763 556.549 159.513 550.376C157.419 559.56 146.299 569.838 139.926 574.758C131.12 581.558 120.842 587.613 109.792 589.788C95.6865 592.564 84.3656 588.542 71.7125 582.031C63.5376 577.824 51.9278 570.074 47.4986 561.579C42.8501 552.664 33.5139 545.144 26.9461 537.367C22.1776 531.72 16.9415 526.817 13.4296 520.236C9.53883 512.944 8.04846 502.968 7.43785 494.885C6.24869 479.143 13.4179 459.045 23.5404 447.057C27.6765 442.158 33.5045 439.46 38.9908 436.385C43.8777 433.646 48.1113 430.223 52.7915 427.229C61.2548 421.817 71.5866 419.106 80.8977 415.549C93.3488 410.794 107.177 406.368 120.163 403.413C120.4 403.359 120.638 403.306 120.876 403.254C117.12 403.934 113.14 404.629 110.858 404.961C89.7277 408.034 66.4228 407.195 45.7323 401.469C33.3547 398.043 18.4494 390.838 11.9249 379.201C7.22532 370.82 6.3116 360.693 4.59923 351.396C3.66616 346.329 1.96782 340.817 1.91626 335.631C1.78584 322.516 8.57435 307.691 12.6067 295.524C16.5158 283.728 22.0054 269.625 33.3381 265.086C44.3437 260.678 50.4374 251.586 66.2373 250.219C80.6055 239.635 106.778 244.632 124.39 248.316C124.709 248.383 125.904 248.527 126.993 248.735C117.202 244.717 73.1077 224.462 50.6711 215.763C-44.4518 165.052 20.3847 101.68 47.4587 89.476C127.737 74.6907 153.387 109.011 156.916 124.05C162.442 136.191 168.462 142.427 171.8 143.826C173.17 144.401 174.205 144.987 175.005 145.589Z" fill="#F1CE46"/>
</svg>
