<svg width="560" height="717" viewBox="0 0 560 717" fill="none" xmlns="http://www.w3.org/2000/svg">
<path d="M152.965 200.086C139.527 178.771 127.328 157.02 116.02 134.404C114.027 130.417 113.922 125.337 112.642 120.889C109.996 111.698 107.13 102.4 103.92 93.3884C99.4609 80.8688 97.9484 68.5806 97.9484 55.3587C97.9484 44.4636 96.5689 13.4521 112.563 12.2218C130.457 10.8453 150.952 12.9741 164.343 26.365C173.419 35.4412 181.43 44.9519 191.372 53.2372C201.195 61.4231 206.975 68.5805 212.509 80.1095C214.719 84.7144 218.53 90.7385 219.447 96.0453C219.085 92.8733 218.388 86.4747 218.166 83.6453C216.195 58.5172 212.251 30.4712 215.416 5.15015C216.372 -2.4948 234.035 0.788564 238.438 0.828594C250.361 0.936981 260.135 4.49313 266.568 14.8147C277.677 32.641 284.158 51.1435 291.711 70.4449C295.374 79.8046 297.932 90.6256 298.783 100.617C299.801 112.579 302.913 124.359 305.854 135.975C307.052 140.706 309.682 145.386 310.019 150.276C310.427 156.194 309.084 162.694 310.412 168.505C311.311 172.441 311.527 157.395 311.59 155.854C312.139 142.403 317.551 134.692 325.576 124.661C328.603 120.877 332.711 111.445 338.384 111.146C347.936 110.643 356.489 130.338 360.385 137.075C361.578 139.139 362.427 143.826 362.427 139.354C362.427 132.57 362.338 125.78 362.742 119.003C363.578 104.977 366.839 89.8826 372.013 76.7308C379.129 58.6461 381.962 45.9331 404.386 43.5727C413.713 42.5908 419.155 43.5672 423.558 52.3729C430.176 65.6103 430.315 78.2138 430.315 92.7598V142.89C430.315 147.358 430.271 151.42 429.215 155.776C428.366 159.278 431.145 148.657 431.808 147.29C436.958 136.669 447.724 127.855 460.016 129.611C476.839 132.014 474.159 169.188 474.159 180.448C474.159 200.57 469.281 219.164 467.088 238.907C466.803 241.471 467.679 233.679 468.816 231.364C472.845 223.163 478.533 215.941 484.156 208.803L484.767 208.027C492.975 197.601 502.891 186.698 513.839 179.034C530.669 167.253 532.537 198.118 533.561 208.106C534.495 217.208 534.975 225.998 534.975 235.135C534.975 251.341 526.769 267.396 519.418 281.572C510.533 298.706 500.829 313.059 485.081 325.102C483.46 326.342 481.973 325.743 480.917 327.538C478.364 331.877 492.604 324.154 495.06 323.452C505.555 320.453 516.345 320.07 527.039 318.345C531.69 317.595 536.997 316.901 541.418 319.052C547.178 321.854 553.206 331.367 555.562 337.124C558.249 343.692 559.294 354.637 559.019 361.796C558.728 369.348 550.267 374.759 544.247 377.354C532.138 382.573 516.732 381.282 503.782 381.282C482.361 381.282 461.047 382.697 439.587 382.697H409.1C405.433 382.697 405.382 382.416 409.415 383.011C420.043 384.579 430.444 387.167 441.158 388.275C463.865 390.624 485.821 397.798 506.532 407.212C513.501 410.38 519.408 415.318 523.346 421.984C528.557 430.802 530.51 442.954 532.932 452.784C535.534 463.342 537.804 475.092 537.804 485.943C537.804 491.142 538.438 495.485 534.975 499.772C531.882 503.601 521.05 508.032 516.288 509.981L516.275 509.986C491.025 520.316 470.053 503.057 452.63 486.257C444.47 478.388 435.016 471.822 425.766 465.118C428.85 468.573 431.89 472.073 434.951 475.571C443.53 485.376 453.999 492.967 461.509 503.857C467.294 512.246 472.582 522.214 474.474 532.301C476.436 542.765 480.227 552.503 482.331 562.788C484.885 575.276 481.413 588.039 475.888 599.089C470.952 608.96 453.22 604.645 446.501 599.717C437.612 593.198 432.864 583.812 425.522 575.831C424.809 575.055 419.638 568.458 419.629 568.602C419.022 578.923 423.956 591.621 425.994 601.603C431.033 626.298 444.165 655.438 418.372 672.634C394.951 688.247 372.972 658.226 362.506 638.69C358.797 631.766 355.411 624.657 351.899 617.632C350.9 615.634 348.284 605.444 348.284 610.875C348.284 629.634 348.391 648.389 347.498 667.133C346.974 678.14 347.362 691.42 342.313 701.706C337.99 710.511 329.877 718.347 319.055 715.849C308.326 713.373 302.234 705.588 295.876 697.227C286.922 685.455 278.812 673.715 271.753 660.69C261.51 641.791 256.36 622.546 255.017 601.053C254.967 600.25 254.925 599.308 254.89 598.262C254.686 602.606 254.281 606.926 253.524 611.189C251.882 620.437 245.333 625.986 238.752 632.168C233.026 637.548 222.117 647.661 213.216 645.683C207.11 644.326 206.885 627.177 206.852 623.447C206.673 603.431 212.458 587.11 217.852 568.131L217.882 568.024C219.252 563.205 220.645 558.302 223.116 553.909C223.422 553.365 223.696 552.918 223.93 552.559C223.384 553.131 222.579 553.889 221.466 554.773L220.276 555.72C197.315 573.981 174.767 591.914 146.664 601.917C135.001 606.069 123.426 610.403 110.992 610.403C99.5714 610.403 94.6851 608.561 90.8767 597.36C82.3399 572.252 103.28 546.337 116.335 527.272C124.285 515.662 134.513 501.108 146.035 492.7C148.408 490.968 155.026 488.482 155.779 485.471C155.802 485.376 130.876 487.852 129.064 487.985C102.175 489.967 74.7661 489.549 50.647 476.042C39.5733 469.841 20.3176 464.999 20.3176 448.541C20.3176 446.702 26.966 441.107 28.1749 439.898C36.9493 431.124 48.1773 424.746 58.0329 417.269C72.931 405.967 87.0968 391.615 105.491 386.154C114.83 383.382 116.728 386.113 105.02 382.068C84.1504 374.859 62.3827 363.773 43.5754 352.053C31.2429 344.368 19.9204 338.774 9.55296 328.952C3.59509 323.308 -2.9968 312.37 2.71705 304.752C13.7715 290.012 35.3708 286.821 49.9398 276.622C63.022 267.465 77.4817 267.65 92.9197 268.293C110.593 269.03 126.84 273.283 143.835 277.329C144.065 277.384 144.334 277.477 144.62 277.593C141.579 275.962 138.503 274.111 135.899 272.065C118.987 258.777 103.974 243.858 96.8483 223.192C94.5375 216.491 93.7054 209.81 93.7054 202.763C93.7054 196.189 91.9309 193.177 99.3627 193.177C114.376 193.177 130.466 191.225 144.778 196.791C147.515 197.856 150.246 198.953 152.965 200.086Z" fill="#2D6BFF"/>
</svg>
