<svg width="627" height="521" viewBox="0 0 627 521" fill="none" xmlns="http://www.w3.org/2000/svg">
<path d="M187.345 485.872C213.974 504.308 240.24 520.862 272.55 520.862C287.754 515.794 300.695 495.125 306.082 480.041C316.305 451.417 330.195 427.021 337.993 396.941C346.255 365.076 342.529 329.702 342.529 296.995C342.529 279.019 340.587 261.368 336.698 243.863C335.201 237.13 332.43 222.661 327.95 217.621C295.801 181.453 297.65 124.947 276.924 83.4951C255.479 40.6056 220.102 0.628162 165.962 7.84683C119.193 14.0827 129.248 -5.9797 82.4246 2.16356C76.0958 3.26422 4.54848 27.7491 9.20788 31.3731C-2.73958 42.7571 -1.22137 52.9456 5.45585 65.5846C13.1318 80.1142 41.6465 83.72 46.3608 99.6307C50.5775 113.862 44.2581 133.419 44.2581 148.21C44.2581 167.128 45.0886 185.619 47.3874 204.265C50.6917 231.067 44.0702 270.457 47.3874 296.995C54.4495 353.491 92.2552 395.966 132.593 436.304C150.406 454.118 166.313 471.312 187.345 485.872Z" fill="#F1CE46"/>
<path d="M414.769 415.898C381.16 436.304 355.997 466.465 319.197 482.961C319.197 469.061 312.334 455.971 319.197 443.617C330.908 422.537 322.997 411.192 328.106 388.199C336.848 348.86 353.602 286.007 330.86 249.051C318.639 229.193 313.365 195.136 313.365 172.431C313.365 149.732 313.701 117.629 333.938 102.452C352.409 88.5987 374.826 78.4361 392.091 63.0893C408.752 48.2796 439.923 44.1191 460.576 44.1191H539.116C554.202 44.1191 574.766 55.0054 584.533 67.4354C591.214 75.9397 603.431 92.491 607.859 102.452C612.046 111.874 618.421 120.824 623.086 130.152C628.29 140.562 625.353 156.456 625.353 167.895C625.353 180.834 627.945 196.891 622.438 208.878C611.669 232.315 600.752 251.987 584.533 272.377C574.256 285.297 569.836 294.642 555.375 303.479C530.018 318.975 515.644 346.26 491.228 361.957C477.926 370.507 463.077 382.817 451.865 394.03C440.744 405.151 427.472 408.186 414.769 415.898Z" fill="#F1CE46"/>
</svg>
