<svg width="1150" height="1140" viewBox="0 0 1150 1140" fill="none" xmlns="http://www.w3.org/2000/svg">
<path d="M725.038 923.754C688.777 885.026 625.527 763.305 625.527 763.305L162.885 584.2C154.558 588.371 135.766 577.193 127.902 574.579C123.2 573.016 81.6757 554.002 98.398 545.624C114.029 537.793 129.12 531.248 145.954 526.323C171.264 518.919 199.277 524.909 223.198 513.263C229.514 510.187 232.143 509.515 224.065 508.304C215.384 507.003 207.139 503.468 199.133 500.016C193.991 497.798 188.226 497.91 182.882 496.343C175.935 494.306 169.056 491.873 162.206 489.526C147.433 484.463 132.251 479.535 117.938 473.246C104.994 467.558 92.3657 456.649 109.443 448.093C124.343 440.628 138.033 436.062 155.298 438.107C166.105 439.387 180.893 442.012 190.214 448.096C194.768 451.068 181.527 441.55 177.174 438.291C162.216 427.091 143.62 409.586 143.165 388.97C143.029 382.84 146.846 382.169 152.605 380.052C168.51 374.205 185.125 370.964 200.364 363.33C205.076 360.969 199.824 358.851 197.611 355.66C194.086 350.578 188.186 346.84 183.664 342.707C179.437 338.842 151.698 306.551 165.544 306.54C172.605 306.534 179.726 306.04 186.784 306.791C197.716 307.953 205.197 313.24 215.47 317.22C217.833 318.136 241.477 328.66 238.959 323.634C237.276 320.274 234.677 316.738 234.763 312.917C234.878 307.797 242.367 306.091 246.146 304.197C256.039 299.241 269.157 300.738 279.914 301.691C289.293 302.523 298.651 304.875 307.59 307.766C308.746 308.14 316.008 311.858 314.291 308.431C311.365 302.591 309.738 296.332 306.84 290.547C304.814 286.505 301.255 284.98 298.524 281.475C289.731 270.189 283.3 256.818 278.393 243.467C275.57 235.787 273.888 232.989 281.732 229.059C287.285 226.277 296.066 223.408 302.297 223.616C314.17 224.012 323.64 225.921 335.066 229.486C344.383 232.393 348.517 235.181 347.123 224.786C346.025 216.601 343.707 191.233 358.891 194.257C366.715 195.815 374.39 200.251 380.307 205.396C391.939 215.511 402.862 228.771 411.592 241.418C417.752 250.342 423.408 259.924 429.169 269.143C438.287 283.735 449.717 296.809 458.918 311.297C461.424 315.244 464.902 325.682 469.58 321.875C471.976 319.925 474.16 316.078 475.034 313.194C478.045 303.246 475.4 293.168 473.938 283.245C471.248 265.002 471.086 246.744 468.802 228.508C468.081 222.755 460.197 204.499 467.105 201.038C472.987 198.091 477.723 199.961 483.788 201.059C496.844 203.422 510.402 206.913 522.826 211.58C530.743 214.555 531.759 215.604 533.308 206.748C535.114 196.415 539.206 186.815 540.654 176.256C541.805 167.857 541.093 155.77 546.427 148.646C557.47 133.898 578.87 142.858 587.537 154.108C591.618 159.404 592.95 165.928 594.185 172.394C595.452 179.025 594.042 189.166 597.051 195.172C599.081 199.224 600.012 186.435 602.77 182.839C611.963 170.851 628.339 171.64 641.124 176.444C656.853 182.353 666.963 187.547 674.713 203.017C676.602 206.787 676.27 205.174 677.828 202.545C679.755 199.293 682.94 196.921 685.259 193.963C692.062 185.282 699.692 180.805 709.499 176.121C711.877 174.985 722.001 171.488 723.971 174.903C731.946 188.73 729.179 201.663 731.307 216.472C733.175 229.476 729.058 245.186 726.65 257.85C723.543 274.194 718.304 289.174 710.338 303.726C707.067 309.702 704.478 315.984 701.473 322.061C707.639 311.253 717.968 301.519 725.002 291.185C730.87 282.563 736.033 273.479 741.396 264.539C744.204 259.857 746.843 253.923 751.301 250.527C763.334 241.362 781.683 240.457 796.05 239.838C809.917 239.241 825.021 236.681 836.391 246.439C842.57 251.743 844.421 260.45 849.539 266.663C852.222 269.92 857.733 267.332 862.438 267.658C874.991 268.529 903.135 262.76 909.783 277.872C916.892 294.029 897.115 308.381 886.496 315.177C881.845 318.154 881.068 318.754 885.095 321.912C888.863 324.867 891.76 329.523 895.154 332.959C904.071 341.987 916.341 348.157 922.009 359.471C927.191 369.814 929.966 379.833 928.333 391.325C927.568 396.709 949.619 400.409 953.567 400.719C962.398 401.412 969.908 399.749 973.808 408.676C975.789 413.21 968.485 419.959 965.276 421.916C963.477 423.013 943.425 431.985 944.146 433.424C945.707 436.539 953.17 439.154 955.61 442.259C960.759 448.808 966.223 460.016 968.495 467.977C971.706 479.228 961.426 491.515 953.712 498.006C950.085 501.058 944.875 501.277 950.133 505.413C958.004 511.604 966.66 516.807 974.971 522.378C986.703 530.243 998.343 531.489 1005.78 544.9L1006.08 545.453C1011.24 554.754 1014.54 560.7 1009.78 570.793C1007.32 576.014 1005.39 579.735 999.944 582.593C981.322 592.358 959.87 588.129 939.578 587.198C929.844 586.751 902.252 580.683 910.364 586.082C916.091 589.893 924.188 590.8 930.571 593.302C942.151 597.84 952.482 608.086 956.02 620.183C956.91 623.224 939.387 628.505 937.702 628.774C930.502 629.925 923.451 630.204 916.229 630.902C913.133 631.201 905.591 629.401 906.984 632.182C907.993 634.196 921.863 634.295 924.676 635.719C932.473 639.668 936.238 638.813 938.153 648.238C944.368 678.819 909.455 685.238 888.073 695.95C885.909 697.034 909.146 706.413 911.241 709.311C923.436 713.973 941.101 726.99 947.886 740.534C951.432 747.612 948.569 765.064 918.957 774.653C914.862 778.879 905.263 778.697 899.664 779.124C861.169 782.06 829.244 758.643 798.023 738.3C785.598 730.205 791.218 733.582 795.312 741.753C797.506 746.133 801.439 749.301 803.697 753.807C807.618 761.635 808.872 770.434 809.479 779.062C809.827 784.003 816.1 813.286 808.77 813.77C799.728 814.367 790.849 811.055 781.965 809.101C771.144 806.722 762.081 801.449 752.407 796.26C739.823 789.51 727.039 783.186 714.735 775.922C708.108 772.008 701.058 768.469 694.558 764.413C694.431 764.334 691.014 761.28 691.106 762.373C692.55 779.533 703.095 793.803 713.354 808.452C732.073 835.182 748.856 863.723 760.19 894.412C762.507 900.685 776.234 950.548 761.509 951.229C748.543 951.829 732.913 932.166 725.038 923.754Z" fill="#FF8BCA"/>
<path d="M624.701 643.637C634.557 667.014 640.881 689.877 643.562 716.957C644.881 730.273 644.059 743.475 645.57 756.79C647.113 770.384 650.084 784.15 651.011 797.764C652.458 819 647.925 840.081 647.942 861.209C647.948 869.058 647.49 879.361 641.201 885.136C632.757 892.888 628.728 891.218 622.528 880.315C604.173 848.035 586.85 813.961 583.443 776.601C580.76 747.176 582.269 716.445 583.527 686.948C584.153 672.279 583.652 656.21 584.613 640.682C580.766 665.57 579.481 691.503 577.622 715.918C576.223 734.301 578.287 753.214 575.274 771.199C573.223 783.445 569.969 795.293 567.191 807.503C562.88 826.45 559.217 854.457 542.225 867.222C533.166 874.028 523.58 841.948 520.828 836.454C512.429 819.691 506.6 803.551 503.397 786.407C501.64 793.552 499.61 800.713 497.196 807.975C488.022 835.569 474.605 860.645 459.087 885.073L458.614 885.819C449.353 900.402 438.98 916.737 423.341 924.572C416.599 927.949 410.196 910.76 408.765 906.123C405.001 893.924 407.27 882.196 410.349 870.084C414.62 853.281 418.584 835.114 426.897 819.784C441.744 792.406 455.208 763.555 472.282 737.479C478.417 728.109 485.102 718.961 492.229 710.318C492.809 709.615 501.998 698.14 495.654 701.319C474.906 711.714 464.662 734.578 450.764 751.641C440.271 764.525 428.935 780.743 416.475 791.711C406.277 800.686 396.922 810.394 387.115 819.815C376.897 829.633 364.642 841.635 353.078 849.744C337.079 860.962 303.386 891.453 288.709 863.784C281.982 851.101 285.765 839.94 292.841 827.379C315.15 787.775 353.776 760.476 388.971 733.438C431.237 700.966 464.983 658.568 506.202 625.022C507.621 623.868 518.488 613.215 515.606 613.938C498.138 618.32 479.455 640.407 467.118 652.147C448.07 670.271 427.907 686.972 407.251 703.209C395.848 712.174 388.567 725.017 377.634 733.915C351.998 754.779 332.561 782.768 302.386 797.886C291.398 803.391 272.735 818.18 259.652 814.093C252.291 811.793 239.726 808.068 236.032 800.695C233.844 796.327 236.351 792.972 238.727 788.94C249.43 770.781 263.948 754.627 276.336 737.584C282.85 728.622 289.392 721.974 298.68 715.985C316.322 704.609 332.418 691.644 348.937 678.711C382.723 652.257 415.86 627.982 453.272 607.817C423.374 619.237 395.004 634.432 366.438 648.743C350.227 656.865 333.167 664.192 317.523 673.379C304.832 680.833 293.354 690.758 280.829 698.526C255.641 714.147 231.488 721.376 201.748 717.206C191.606 715.784 157.894 708.366 170.113 695.338C193.935 669.939 219.47 642.778 250.871 627.046C273.166 615.876 304.032 615.368 328.446 611.592C369.185 605.291 410.225 610.669 450.437 602.498C451.895 602.201 453.436 601.877 455.035 601.539C421.463 604.996 387.327 607.447 353.819 605.903C326.324 604.636 301.485 609.765 274.78 612.726C244.056 616.134 216.504 629.876 187.124 637.914C177.436 640.564 162.872 641.133 153.737 636.432C140.519 629.63 148.245 621.722 154.757 611.47C162.742 598.9 174.041 595.306 187.397 588.615C208.84 577.872 230.714 574.046 254.624 573.793C283.565 573.486 312.038 574.917 340.999 572.008C370.531 569.041 399.463 562.711 428.874 559.457C440.198 558.204 451.487 556.593 462.761 555.17C408.658 555.631 335.742 555.267 299.486 553.528C281.701 552.674 260.381 550.236 251.523 532.557C247.171 523.869 255.933 514.442 258.211 506.446C262.468 491.501 297.953 491.79 308.694 492.729C358.5 497.084 407.334 509.838 454.536 525.53C471.753 531.254 493.42 530.923 509.617 538.383C513.724 540.275 523.783 539.467 528.183 539.096C530.499 538.902 534.28 539.382 537.99 540.159C534.73 537.93 531.608 535.684 530.207 535.091C522.602 531.868 515.002 528.743 507.371 525.592C487.228 517.276 466.16 510.679 445.47 503.801C435.884 500.614 429.981 495.289 421.487 491.235C403.773 482.781 384.294 478.205 365.517 472.455C347.588 466.965 329.457 464.701 311.165 461.058C295.487 457.935 280.623 459.049 265.501 454.022C255.553 450.714 244.341 452.014 234.866 447.65C214.33 438.192 193.111 417.839 177.627 401.413C170.56 393.917 163.512 388.955 171.942 380.981C184.483 369.118 200.199 363.366 216.964 365.448C253.636 370.002 288.537 385.079 322.851 399.161C303.047 387.694 284.51 373.174 274.053 353.234C268.077 341.837 264.44 332.853 263.262 320.013C262.256 309.038 263.885 308.367 274.055 304.181L274.274 304.091C295.534 295.339 328.021 307.246 347.867 315.733C363.612 322.466 380.164 337.517 391.785 349.916C413.776 373.379 434.984 396.921 455.233 421.704C454.588 420.799 453.946 419.89 453.307 418.978C424.745 378.194 400.234 334.072 377.956 289.603C366.951 267.639 355.74 244.592 359.542 219.103C360.971 209.529 360.251 181.631 378.34 185.234C413.782 192.293 433.446 253.561 444.773 281.75C455.456 308.337 467.557 334.258 478.066 360.923C486.647 382.697 492.799 406.58 503.197 427.44C496.615 403.916 490.406 379.599 489.866 355.142C489.406 334.328 490.331 313.685 489.088 292.843C488.013 274.814 489.703 257.009 488.369 238.969C487.347 225.157 486.73 215.49 491.096 202.357C498.108 181.264 517.659 191.128 527.188 205.344C549.064 237.978 556.325 273.509 559.879 311.871C561.306 327.272 562.745 343.471 563.27 359.68C571.732 303.986 598.045 255.172 631.301 209.369C640.346 196.911 649.385 183.922 663.308 176.946C669.642 173.773 675.592 180.665 680.112 185.045C693.72 198.232 694.42 221.479 693.208 238.961C691.975 256.72 680.492 274.272 676.297 291.653C669.567 319.539 658.923 346.663 652.858 374.668C648.474 394.913 643.848 415.148 637.353 434.804C652.093 413.226 669.52 393.867 684.214 372.355C696.07 354.997 701.12 335.077 716.362 320.223C736.882 300.225 762.552 281.596 786.314 265.668C804.96 253.169 828.505 238.482 845.955 258.808C853.264 267.322 858.153 279.859 862.777 290.049C867.367 300.162 861.598 312.361 858.33 322.19C854.153 334.756 841.868 352.172 829.24 363.162C830.311 362.575 831.386 361.994 832.464 361.42C852.75 350.631 863.447 336.483 887.568 337.195C914.654 337.994 950.513 357.797 941.484 388.739C938.161 400.124 916.533 410.405 906.456 415.652C892.033 423.162 878.52 432.137 864.542 440.42C876.499 436.404 888.512 432.616 900.59 429.125C910.805 426.173 925.513 416.939 936.102 422.389C943.937 426.421 950.213 431.815 957.019 437.141C966.739 444.746 975.857 455.012 981.328 465.931C989.129 481.502 926.653 503.548 917.24 506.232C899.288 511.351 881.469 514.762 863.898 521.251C845.325 528.111 825.848 535.963 806.345 539.55C798.606 540.974 790.79 541.961 782.951 542.805C796.783 544.488 810.544 546.72 824.19 549.469C854.527 555.579 882.991 569.897 911.58 581.121C934.116 589.968 957.332 597.729 977.232 611.958C979.307 613.441 992.124 619.675 987.381 623.13C977.62 630.241 963.331 620.699 952.434 620.87C921.841 621.351 890.462 624.353 860.026 622.036C853.478 621.537 846.936 621.058 840.395 620.585C852.062 622.708 863.81 624.421 875.733 625.351C889.804 626.45 904.096 626.924 917.963 629.686C925.279 631.143 948.401 633.848 951.982 640.995C957.265 651.542 933.517 667.604 928.034 672.892C912.626 687.753 886.488 685.155 868.289 680.584C851.366 676.334 834.292 670.495 817.678 664.972C802.309 659.862 786.459 657.271 771.644 650.448C751.194 641.029 727.952 637.569 706.625 630.479C697.22 627.352 689.563 619.704 680.403 615.523C669.238 610.426 657.063 606.211 645.136 603.278C643.035 602.762 628.208 597.795 631.042 602.406C642.619 621.237 669.269 637.432 687.295 650.047C711.601 667.056 740.068 678.578 762.737 697.829C775.098 708.326 788.965 716.818 800.464 728.741C811.822 740.517 841.032 771.812 831.768 791.223C823.619 808.295 797.112 805.403 784.346 797.033C752.074 775.877 723.416 750.055 693.648 725.81C681.892 716.235 674.615 702.585 663.928 692.188C654.804 683.312 645.631 672.714 637.903 662.567C633.478 656.758 629.239 649.787 624.701 643.637Z" fill="#FF8BCA"/>
</svg>
