<svg width="361" height="673" viewBox="0 0 361 673" fill="none" xmlns="http://www.w3.org/2000/svg">
<path d="M201.101 654.795C193 647.487 159.761 595.087 146.213 582.465C142.302 590.383 131.492 584.239 124.411 575.388C119.678 569.471 115.291 563.373 110.989 557.267C114.58 567.683 117.747 577.34 123.229 587.086C125.266 590.707 140.073 608.876 133.746 612.492C128.502 615.488 127.926 621.497 123.229 625.254C119.848 627.959 115.857 634.645 112.713 638.488C98.1579 656.278 72.2693 683.371 48.9029 667.794C41.1689 662.638 31.8411 638.814 41.813 631.635C52.744 623.764 63.2474 616.6 75.3722 610.365C78.5198 608.746 109.731 592.837 108.931 591.695C104.434 585.27 88.4623 584.121 81.7531 580.114C67.6696 571.703 54.0397 563.326 41.3403 552.936C32.8753 546.01 -10.9168 491.436 3.05445 483.218C18.2713 474.267 49.5044 495.145 60.4832 502.006C82.9904 516.073 96.5074 536.713 110.989 557.267C110.51 555.877 110.023 554.473 109.522 553.054C98.5824 522.058 104.746 481.511 105.15 449.186C105.347 433.424 110.835 417.446 113.658 401.92C114.606 396.704 116.689 378.416 123.348 376.514C150.994 368.615 155.911 397.306 156.198 417.99C156.333 427.758 155.387 457.03 156.198 447.295C158.173 423.591 173.126 397.655 183.376 376.396C191.597 359.345 197.69 341.912 207.364 325.466C221.312 301.755 247.917 282.271 267.865 263.783C288.885 244.301 306.485 218.335 328.957 200.919C336.913 194.753 348.406 184.967 351.881 198.674C355.226 211.866 357.284 225.739 359.207 239.205C365.407 282.605 342.886 317.953 317.849 350.872C310.269 360.839 264.55 416.019 229.846 458.617C221.586 472.457 213.584 486.426 207.718 501.416C207.22 502.69 198.745 528.475 202.046 528.003C204.235 527.69 207.913 522.491 209.373 521.031C218.981 511.423 224.977 498.118 233.951 487.708C252.081 466.678 267.906 445.124 290.435 428.389C294.932 425.048 313.836 415.203 305.087 429.098C299.489 437.988 295.351 448.538 291.38 458.285C275.968 496.114 263.412 540.497 238.205 572.906C227.252 586.989 225.56 579.114 210.318 572.079C206.174 570.166 186.396 559.738 188.103 561.444C197.5 570.841 208.716 575.403 220.008 581.532C228.438 586.109 233.951 596.801 238.442 604.693C245.008 616.234 254.235 628.912 256.994 642.151C260.115 657.135 234.226 674.3 221.189 671.929C214.378 670.691 205.747 658.987 201.101 654.795Z" fill="#2D6BFF"/>
<path d="M168.417 431.417C165.474 413.934 185.69 573.408 139.421 585.747C106.724 585.747 56.8509 420.453 61.7399 416.453C67.8921 411.42 77.8875 410.711 85.9572 413.1C72.3699 391.711 58.3747 370.594 51.1667 345.935C46.3056 329.305 44.546 311.872 42.2959 294.772C40.6175 282.015 39.833 267.475 47.1345 256.242C51.7921 249.076 65.8278 245.14 73.8364 246.475C89.0932 249.018 98.916 281.483 102.599 293.965C108.837 315.104 111.45 337.248 117.653 358.48C119.952 366.351 123.746 390.515 123.746 382.314V317.979C123.746 298.918 120.754 280.153 120.52 261.17C120.253 239.577 119.016 216.998 120.61 195.491C122.024 176.399 139.22 174.292 146.326 191.548C151.007 202.917 151.029 217.972 151.164 230.167C151.349 246.829 151.164 263.503 151.164 280.166C151.164 294.557 150.94 308.966 151.164 323.355C151.359 335.806 155.726 347.974 156.003 360.451C156.121 365.747 155.004 371.883 156.809 376.938C158.611 381.984 157.616 373.197 157.616 371.92C157.616 363.958 157.858 355.952 157.526 347.996C156.786 330.243 156.003 312.657 156.003 294.861C156.003 286.585 159.16 281.28 160.842 273.715C163.767 260.551 183.69 247.212 196.683 254.719C216.268 266.034 157.567 366.96 168.417 431.417Z" fill="#2D6BFF"/>
<path d="M185.037 243.07C185.037 211.487 182.643 178.222 200.449 150.241C207.877 138.569 218.314 108.84 237.545 115.833C249.596 120.216 248.88 141.221 247.222 150.779C244.126 168.629 233.977 183.267 226.972 199.613C224.415 205.577 222.016 211.557 219.639 217.53C227.46 206.334 236.442 195.826 244.713 185.366C257.023 169.797 275.345 166.091 293.099 157.589C300.922 153.843 324.686 143.438 328.224 157.589C334.185 181.432 161.594 472.886 185.037 243.07Z" fill="#2D6BFF"/>
<path d="M250.158 112.813C243.871 127.792 193.32 164.748 180.385 136.113C177.981 132.507 219.687 108.325 218.499 104.048C215.56 93.4663 218.499 71.7555 218.499 60.8129C218.499 44.7709 215.69 0.248047 240.217 0.248047C246.306 0.248047 251.373 5.74577 255.588 9.95983C259.081 13.4537 259.793 18.1888 259.793 22.8834V63.2599C259.793 80.4329 256.852 96.8656 250.158 112.813Z" fill="#2D6BFF"/>
<path d="M198.743 35.9065C217.768 52.0042 214.033 153.599 185.034 175.33C179.818 167.506 174.697 155.064 172.131 145.94C162.731 112.516 160.718 77.7286 164.156 43.3436C164.918 35.7278 176.68 30.1719 183.332 30.1719C189.308 30.1719 193.992 31.8864 198.743 35.9065Z" fill="#2D6BFF"/>
</svg>
