<svg width="777" height="691" viewBox="0 0 777 691" fill="none" xmlns="http://www.w3.org/2000/svg">
<path d="M424.672 319.839C401.38 318.383 378.204 322.999 354.895 322.999C352.265 324.753 351.294 324.905 348.434 326.917C343.862 330.135 344.627 334.668 341.178 339.102C334.665 347.476 329.295 355.241 323.764 364.329C294.555 412.315 255.979 453.313 220.708 496.906C213.838 505.397 204.697 517.144 206.991 528.872C209.099 539.642 221.483 548.057 229.058 554.874C237.691 562.644 245.125 569.438 255.06 575.509C266.244 582.344 277.699 588.297 288.517 595.787C306.343 608.127 324.322 620.686 343.087 631.57C357.988 640.212 370.657 651.096 384.715 660.912C396.644 669.242 409.573 674.354 422.525 680.712C430.04 684.401 438.981 688.329 447.275 689.538C458.175 691.128 470.501 690.723 481.508 690.075C489.595 689.6 496.039 685.062 500.891 678.863C511.878 664.824 514.546 647.566 523.434 632.405C526.808 626.649 527.255 617.931 527.966 611.531C529.204 600.393 529.875 589.71 529.875 578.491C529.875 555.034 530.736 531.295 527.191 508.058C525.02 493.822 522.196 479.659 518.544 465.715C514.861 451.653 508.641 439.239 503.038 425.995C499.305 417.172 494.253 409.05 490.394 400.291C486.273 390.936 482.913 381.246 478.884 371.843C473.68 359.701 466.398 349.863 459.024 339.102C450.663 326.9 439.374 320.757 424.672 319.839Z" fill="#FF8BCA"/>
<path d="M105.473 508.72C130.337 527.747 152.199 530.219 174.308 513.795C179.137 513.795 190.449 502.256 193.738 499.059C202.627 490.417 210.056 480.636 217.951 471.089C232.853 453.068 248.659 435.997 263.575 418.01C270.253 409.958 278.245 402.795 283.852 393.916C287.733 387.771 291.689 381.728 295.959 375.846C306.3 361.598 315.681 346.56 324.466 331.355C327.515 326.077 327.575 317.532 326.315 311.734C324.192 301.971 318.351 295.943 310.749 289.489C299.717 280.122 290.223 273.625 275.324 273.625C259.39 273.625 241.373 278.325 228.03 287.103C211.054 298.272 192.983 309.389 177.874 323.006C170.531 329.624 165.61 338.178 159.148 345.549C151.295 354.506 142.465 362.232 134.934 371.552C118.315 392.118 100.726 411.679 83.7047 431.966C73.5428 444.076 55.5557 456.666 67.1848 472.818C77.2686 486.823 91.9369 498.363 105.473 508.72Z" fill="#FF8BCA"/>
<path d="M29.0821 425.786C79.6738 431.805 175.244 270.885 227.191 270.288C235.992 264.149 253.232 258.38 256.425 252.953C258.858 248.815 259.615 243.788 262.031 239.475C267.434 229.826 270.645 219.129 277.06 210.013C282.132 202.805 288.672 198.157 292.089 189.617C295.682 180.633 295.309 171.387 295.309 161.885C295.309 159.938 288.068 154.328 286.381 152.641C282.904 149.164 284.05 147.437 279.803 145.365C265.993 138.628 251.326 133.538 236.028 131.648C223.001 130.039 209.229 128.646 196.547 125.147C183.608 121.578 171.293 119.245 158.736 123.895C154.035 125.636 150.497 128.608 146.689 131.887C138.414 139.013 129.941 145.842 121.403 152.641C109.223 162.339 96.0873 170.601 83.8304 180.134C68.0398 192.416 54.9423 208.269 40.8906 222.418L40.8173 222.492C26.5065 236.902 11.7059 251.805 9.69955 272.872C6.60246 305.392 1.81651 337.831 0.336287 370.56C-0.135912 381.001 0.0977329 391.48 0.0977329 401.93C0.0977329 403.361 -0.316878 405.381 0.634481 406.522C4.7171 411.422 8.252 416.764 12.9797 421.492C17.2717 425.784 23.3559 425.786 29.0821 425.786Z" fill="#FF8BCA"/>
<path d="M273.029 133.953C290.806 143.73 292.546 157.536 312.012 164.452C318.405 170.532 324.117 173.653 332.218 171.61C340.863 169.43 347.908 164.146 355.743 160.176C363.129 156.434 370.942 153.847 378.904 151.654C392.33 147.957 405.387 143.791 419.253 142.405C428.859 141.444 438.526 141.749 448.167 141.749C465.263 141.749 482.229 142.672 499.296 143.06C516.718 143.456 533.599 151.139 550.06 156.243C572.481 163.195 593.713 168.918 614.662 156.898C637.349 143.881 638.028 113.939 624.858 93.2429C618.745 83.6361 616.522 77.6718 608.325 70.0823C586.422 49.8011 560.252 35.6802 535.712 18.8084C524.139 10.852 509.213 2.97286 495.071 1.40154C479.122 -0.370567 462.982 0.163388 446.856 0.163388C439.778 0.163388 433.05 0.887696 426.026 1.7657C392.177 5.99681 358.227 16.4278 325.591 25.8003C294.671 34.6797 260.622 49.8249 238.119 73.5782C232.79 79.2033 229.916 87.4641 231.637 95.2094C233.007 101.373 244.725 108.686 248.607 113.927C254.218 121.502 265.055 129.567 273.029 133.953Z" fill="#FF8BCA"/>
<path d="M662.872 199.507C642.138 181.796 608.04 178.761 582.757 172.704C570.204 168.753 572.808 192.454 572.475 200.562C570.89 239.251 574.74 277.711 578.824 316.329C582.958 355.428 596.43 392.256 614.584 426.889C627.196 450.948 641.9 476.324 663.455 493.603C712.745 533.115 753.895 461.228 767.896 422.155C774.854 402.738 778.755 383.331 774.888 362.942C771.205 343.522 763.403 325.267 754.349 307.662C740.176 280.103 722.156 257.254 700.599 235.194C688.413 222.723 676.111 210.815 662.872 199.507Z" fill="#FF8BCA"/>
<path d="M497.269 342.331C493.061 350.747 492.266 357.837 492.266 366.915C495.966 378.017 495.807 389.226 501.294 400.201C504.628 406.868 507.903 412.225 512.879 417.823C521.562 427.592 527.495 440.589 534.362 451.653C544.491 467.97 548.909 486.4 553.725 504.736C560.106 529.034 564.09 553.847 569.389 578.378C573.561 597.696 583.04 618.197 595.821 633.202C600.549 638.752 606.377 642.013 613.715 642.013C632.186 642.013 650.287 634.672 663.1 620.91C668.515 615.093 672.832 608.215 675.827 600.895C677.616 596.521 682.078 591.801 682.19 586.971C682.326 581.144 683.035 574.425 681.429 568.806C680.253 564.688 676.797 561.096 674.359 557.438C663.308 540.863 648.6 526.9 636.395 511.045C629.982 502.713 623.653 494.287 617.74 485.591C616.086 483.159 614.246 480.907 613.607 478.031C612.818 474.48 610.176 470.641 608.766 467.316C605.006 458.449 601.428 449.418 598.215 440.34C589.719 416.336 580.151 392.851 575.045 367.785C572.323 354.422 569.302 341.484 563.732 328.952C560.913 322.609 557.163 314.835 550.516 311.656C540.312 306.776 525.462 311.01 516.74 316.986C508.592 322.57 501.606 333.659 497.269 342.331Z" fill="#FF8BCA"/>
<path d="M443.844 309.526C416.686 309.526 391.486 305.61 364.328 305.61C360.371 302.972 354.152 304.204 351.057 300.225C349.221 297.865 344.973 294.637 342.573 292.883C339.903 290.932 337.727 288.299 334.958 286.519C329.66 283.113 324.225 277.664 320.273 272.813C316.964 268.751 312.503 265.669 309.504 261.337C305.203 255.124 298.735 245.632 298.735 238.059C298.735 222.309 299.625 208.657 307.981 194.983C310.638 190.637 313.333 185.782 317.88 183.235C324.729 179.4 332.458 177.116 340.071 175.403C351.745 172.777 362.537 168.55 374.716 168.55H414.474C442.752 168.55 474.086 167.883 499.919 181.277C506.499 184.689 513.529 186.761 519.988 190.578C525.504 193.837 528.419 200.353 533.694 203.577C535.912 204.932 538.025 208.36 539.078 210.702C542.235 217.716 546.327 225.687 547.182 233.382C549.442 253.721 540.133 271.645 524.394 283.963C514.441 291.752 499.27 296.46 487.303 300.174L487.137 300.225C479.949 302.456 473.105 306.367 465.599 307.568C458.108 308.766 451.574 309.526 443.844 309.526Z" fill="#FF8BCA"/>
</svg>
