<svg width="1432" height="1420" viewBox="0 0 1432 1420" fill="none" xmlns="http://www.w3.org/2000/svg">
<path d="M697.659 1112.1C709.619 1122.04 716.139 1131.64 720.71 1142.77C720.814 1135.59 721.338 1128.32 722.258 1120.83C724.015 1106.54 720.877 1091.81 726.899 1078.19C733.891 1062.37 751.666 1054.29 763.535 1043.68C774.117 1034.22 781.187 1009.33 791.249 996.948C804.837 980.229 820.963 964.988 835.675 949.183C870.989 911.245 894.044 864.782 920.64 820.472C960.068 754.78 972.009 678.894 953.31 604.048C947.424 580.49 942.248 547.337 928.375 527.727C910.589 502.587 892.638 467.134 881.948 438.339C870.75 408.176 847.929 377.94 826.646 353.681C798.146 321.199 765.576 289.922 730.573 264.334C719.301 256.095 704.254 240.367 691.383 234.945C690.163 234.432 693.806 271.264 693.744 274.583C692.369 347.95 680.225 418.545 658.363 488.542C650.666 513.184 644.825 538.308 637.596 563.081C634.241 574.575 634.551 590.209 629.85 600.844C615.476 633.361 589.739 663.836 572.598 695.393C549.297 738.292 517.019 781.29 508.191 830.072C500.821 870.795 501.041 907.121 511.032 947.112C526.106 1007.45 562.408 1035.54 616.123 1062.49C645.019 1076.99 672.691 1091.36 697.659 1112.1Z" fill="#F1CE46"/>
<path d="M703.32 1067.12C685.156 994.419 664.012 922.922 645.874 850.321C637.42 816.486 617.192 786.705 608.398 752.857C598.871 716.186 584.457 676.568 583.107 638.495C581.694 598.621 586.461 558.365 582.482 518.517C579.767 491.323 584.576 463.079 578.505 436.2C573.59 414.435 577.52 434.221 580.606 443.879C591.551 478.134 613.588 507.1 624.473 540.657C633.401 568.178 649.79 594.243 657.662 621.691C677.16 689.678 669.307 753.001 671.701 822.357C672.586 847.985 670.864 873.221 671.089 898.711C671.232 914.924 670.123 931.124 668.636 947.268C667.644 958.038 666.8 948.115 665.892 942.849C662.796 924.91 663.915 906.34 661.911 888.243C658.016 853.075 651.928 818.384 646.313 783.49C640.194 745.47 644.304 706.093 641.097 667.758C639.346 646.819 635.891 626.491 630.812 606.159C628.15 595.507 618.387 587.277 613.143 577.76C599.336 552.7 612.162 589.938 615.542 597.578C631.904 634.553 644.502 674.091 654.302 713.315C660.207 736.948 660.274 753.477 659.054 777.573C657.201 814.14 634.718 739.78 632.937 732.872C621.335 687.876 584.805 553.351 596.068 598.433C604.384 631.721 612.701 665.009 621.018 698.297C623.075 706.533 625.133 714.769 627.191 723.005C629.249 731.241 623.075 706.533 621.018 698.297C613.073 666.496 605.128 634.695 597.182 602.894C593.972 590.045 586.329 572.757 587.967 559.44C589.24 549.08 584.749 537.929 585.097 527.525C585.231 523.527 595.504 544.305 596.676 548.331C597.562 551.375 604.615 566.4 609.113 565.277C611.652 564.642 605.612 549.007 609.202 545.931" stroke="#FF8BCA" stroke-width="10" stroke-linecap="round"/>
</svg>
