<svg width="668" height="589" viewBox="0 0 668 589" fill="none" xmlns="http://www.w3.org/2000/svg">
<path d="M154.547 502.849C155.898 500.699 156.931 498.448 157.866 496.169C155.221 496.899 152.684 497.688 150.835 498.843C143.734 503.279 135.689 507.896 129.272 513.333C119.284 521.796 107.861 528.298 97.0326 535.594C81.2841 546.205 64.0974 559.697 45.4171 564.981C31.2318 568.993 12.4938 565.368 4.41509 552.568C-3.7249 539.671 1.71274 521.119 9.76904 509.076C22.8077 489.584 33.9841 469.021 52.0934 453.995C75.1205 434.887 100.538 416.311 126.455 400.481C113.446 393.348 96.3698 386.945 88.9493 374.965C86.5951 371.165 81.5416 362.525 81.5488 357.942C81.5583 351.926 81.755 345.11 83.192 339.258C85.135 331.346 85.4381 322.911 87.6506 314.849C89.414 308.423 93.4927 302.02 97.1981 296.481C104.168 286.063 108.663 270.948 118.347 262.743C125.692 256.519 133.508 248.321 139.734 240.933C146.257 233.192 153.679 228.474 161.933 222.913C167.21 219.357 171.201 214.64 176.288 211.008C180.573 207.949 186.049 206.712 190.099 203.405C203.03 192.848 218.108 186.138 233.589 180.554C241.401 177.736 250.047 173.864 257.39 169.997C261.709 167.722 264.999 164.313 270.236 166.111C274.599 167.609 281.472 171.883 282.405 176.584C283.942 184.337 286.5 192.582 286.6 200.493C286.68 206.788 284.01 218.844 292.91 218.207C301.423 217.598 314.103 215.844 321.663 212.078C326.637 209.601 329.49 203.107 332.677 198.344C335.853 193.596 336.566 190.33 337.469 185.114C338.391 179.782 340.092 171.046 339.37 165.892C336.684 146.731 345.365 123.317 352.655 105.691C363.501 79.4681 374.976 54.594 391.455 31.3095C401.505 17.1081 409.282 8.07779 426.765 4.60984C441.436 1.69969 458.73 -5.45278 463.958 10.3155C466.053 16.6342 468.248 32.3208 469.534 38.7993C470.898 45.6798 470.643 52.3004 471.864 59.1267C474.221 72.3097 471.899 89.1306 470.719 102.696C469.278 119.275 464.917 135.002 458.35 149.958C468.025 138.583 473.686 123.129 485.81 114.109C497.021 105.769 507.063 96.5358 519.479 89.5584C530.589 83.3158 542.374 74.399 554.777 71.0677C566.267 67.9816 574.755 57.3178 586.539 54.9804C594.553 53.3906 601.098 51.9542 609.273 53.7532C625.202 57.2581 644.411 62.649 648.592 80.9678C651.753 94.8208 641.174 111.166 633.98 121.92C619.227 143.975 601.969 164.314 587.338 186.185C585.862 188.392 584.376 190.572 582.877 192.727C588.1 191.219 593.374 190.264 599.446 190.531C608.387 190.924 624.496 196.331 631.914 201.293C645.946 210.68 659.749 220.57 665.348 237.456C671.29 255.374 660.333 266.299 649.961 280.932C638.753 296.746 619.933 309.687 605.413 322.352C597.559 329.202 590.189 338.58 581.85 344.533C574.981 349.437 568.851 355.05 562.157 360.171C553.32 366.933 541.677 371.894 534.364 380.334C521.926 394.691 498.332 400.213 481.51 409.298C475.311 412.646 468.725 415.023 461.951 416.809C468.53 422.088 474.488 428.446 475.949 435.811C477.728 444.779 467.104 456.01 462.576 462.779C456.674 471.601 451.366 481.083 443.872 488.616C435.971 496.558 427.666 504.297 420.236 512.575C411.043 522.817 395.864 529.938 384.764 538.151C377.759 543.335 369.401 545.338 361.524 548.779C357.57 550.507 354.961 553.801 351.339 555.967C344.82 559.864 336.787 561.768 329.995 565.429C321.351 570.087 312.263 573.197 303.408 577.268C293.188 581.965 282.53 581.785 272.15 585.17C259.769 589.208 242.471 587.79 229.627 587.769C213.3 587.744 199.179 582.01 186.009 573.201C164.259 558.651 137.169 530.505 154.547 502.849Z" fill="#2D6BFF"/>
</svg>
