<svg width="297" height="401" viewBox="0 0 297 401" fill="none" xmlns="http://www.w3.org/2000/svg">
<path d="M2.96289 398.164C28.9116 355.249 58.1992 314.078 82.0321 269.943C96.9335 242.348 114.864 215.84 127.226 186.996C141.492 153.709 161.144 123.629 176.773 91.0681C186.337 71.1435 196.129 50.8859 203.129 29.8864C204.539 25.6572 211.796 2.34405 212.389 3.53003" stroke="#597234" stroke-width="5" stroke-linecap="round"/>
<path d="M62.7998 316.955C84.5444 312.774 103.197 294.004 119.47 279.914C136.092 265.522 155.196 253.9 171.075 238.599C182.05 228.023 194.622 216.475 207.008 207.572C217.874 199.763 230.61 188.491 244.05 185.569C251.302 183.993 264.239 180.129 271.118 184.461C276.662 187.952 280.384 192.878 285.048 197.283C295.829 207.464 297.508 237.401 289.322 249.679C284.968 256.211 279.573 262.722 273.018 267.092C258.853 276.535 245.392 278.549 229.803 284.188C224.249 286.197 218.201 286.536 212.39 287.354C203.754 288.57 195.448 291.442 186.746 292.419C172.838 293.982 159.408 295.327 145.431 295.585C126.066 295.944 106.953 298.266 88.4439 303.025C82.3637 304.589 67.2434 306.644 64.2245 312.681" stroke="#597234" stroke-width="5" stroke-linecap="round"/>
</svg>
