<svg width="509" height="504" viewBox="0 0 509 504" fill="none" xmlns="http://www.w3.org/2000/svg">
<path d="M248.498 2.80078C242.89 52.769 221.532 97.3288 202.125 142.935C189.724 172.078 170.134 197.471 156.397 226.002C148.178 243.071 144.649 262.14 133.994 278.276C121.434 297.295 105.078 315.519 90.4782 333.039C85.7857 338.67 77.4539 344.708 74.6209 351.662C72.3888 357.141 69.8116 362.784 66.6923 367.888C58.0452 382.038 43.8011 390.909 34.4244 404.305C29.8198 410.883 25.552 417.17 19.489 422.559C18.3796 423.545 7.87263 431.994 7.87263 427.63C7.87263 419.368 18.7805 411.611 23.8221 406.794C35.4998 395.635 48.9402 381.695 63.3733 374.157C104.073 352.903 146.504 331.863 181.934 302.338C204.761 283.316 226.336 267.628 252.002 252.83C292.518 229.469 333.791 206.987 375.818 186.451C401.872 173.72 426.612 158.642 452.615 145.886C466.01 139.315 479.381 133.391 493.734 129.291C504.396 126.244 505.719 129.997 505.719 138.971C505.719 156.201 483.711 168.332 471.607 177.047C456.077 188.229 440.771 199.964 426.064 212.265C399.631 234.372 371.053 254.027 345.117 276.616C329.26 290.428 316.162 308.66 302.524 324.649C293.919 334.738 283.669 343.267 275.05 353.322C267.599 362.014 261.561 372.392 252.555 379.597C221.891 404.127 195.678 438.155 171.793 469.117C151.392 495.563 127.279 500.647 94.2582 500.647C72.4434 500.647 51.9859 496.78 31.4742 489.031C22.5895 485.674 12.9223 485.287 4.55365 480.365C0.841124 478.181 3.86848 475.636 6.21314 474.464C20.5084 467.316 34.1384 458.244 47.4238 449.387C64.0441 438.307 79.7658 424.838 94.9957 411.865C109.339 399.646 125.048 389.988 140.632 379.505C161.687 365.34 178.507 350.359 205.352 349.634C212.964 349.428 223.606 346.701 223.606 357.009C223.606 362.541 207.067 370.39 202.955 372.867C187.462 382.198 171.51 390.754 156.212 400.433C109.012 430.294 58.716 456.141 9.53212 480.733" stroke="#597234" stroke-width="5" stroke-linecap="round"/>
</svg>
