<svg width="607" height="827" viewBox="0 0 607 827" fill="none" xmlns="http://www.w3.org/2000/svg">
<path d="M309.345 407.556C311.755 448.53 323.393 482.16 329.995 522.508C329.995 541.151 340.357 556.947 349.494 573.027C360.699 592.748 367.935 614.342 377.855 634.89C378.957 637.172 384.159 650.815 388.225 647.653C394.471 642.795 399.825 637.162 405.862 632.054C415.947 623.52 426.372 615.941 436.882 607.947C451.162 597.086 462.473 582.016 473.486 567.975C485.588 552.544 492.789 534.074 502.202 517.013C509.462 503.854 517.013 490.886 524.803 478.016C560.978 418.248 581.53 349.807 593.579 281.082C596.617 263.755 602.525 245.574 602.796 227.904C602.956 217.541 602.796 207.159 602.796 196.795C602.796 164.605 607.086 128.169 598.01 96.9098L597.79 96.152C595.084 86.8255 592.363 77.4481 588.084 68.7257C578.099 48.3719 575.301 25.049 567.788 3.76034C564.764 -4.80729 485.231 57.3831 479.07 61.9898C459.956 76.2821 438.323 88.0265 421.284 104.886C405.062 120.937 391.844 138.344 379.716 157.71C364.375 182.206 355.777 209.03 345.949 236.058C341.068 249.48 333.894 261.409 330.35 275.587C323.486 303.042 310.023 331.158 309.256 359.784C308.834 375.557 308.418 391.798 309.345 407.556Z" stroke="#597234" stroke-width="5" stroke-linecap="round"/>
<path d="M386.628 744.171C400.876 761.707 408.185 768.21 424.118 784.143C427.254 791.981 443.918 810.608 435.286 819.24C425.07 829.456 390.939 818.647 381.222 816.404C357.074 810.832 336.095 805.019 313.863 794.247C300.225 787.639 284.74 775.118 269.549 772.621C258.82 770.858 249.866 767.684 240.656 761.809C193.877 731.967 146.885 693.474 112.586 649.604C81.2104 609.472 48.0447 571.805 19.8799 529.245C16.1155 523.557 12.3635 517.831 7.20586 513.292C6.20522 512.411 3.12891 510.755 3.12891 509.038C3.12891 507.175 18.5792 508.116 19.8799 508.063C45.0265 507.036 72.3407 503.204 97.3419 507.531C115.413 510.659 135.673 518.952 151.494 528.182C181.317 545.578 209.997 567.586 235.604 590.754C251.841 605.445 266.19 622.118 283.198 635.955C298.616 648.498 312.222 661.24 325.119 676.37C337.045 690.36 352.96 700.445 364.116 714.924C371.657 724.711 378.843 734.589 386.628 744.171Z" stroke="#597234" stroke-width="5" stroke-linecap="round"/>
<path d="M382.666 704.363C367.343 661.18 345.888 620.79 334.274 576.208C330.118 560.252 327.843 543.67 323.059 527.973C313.208 495.65 300.918 463.343 287.765 432.21C282.961 420.838 273.056 406.904 272.55 394.249C271.605 370.635 261.109 346.152 253.569 324.054C246.823 304.279 240.695 284.224 233.099 264.761C225.256 244.663 227.667 223.22 223.06 202.487C222.561 200.243 220.385 197.923 220.315 195.821C220.003 186.459 220.896 173.191 216.08 164.762C211.407 156.585 205.796 156.569 196.629 159.743C192.578 161.145 192.08 162.649 192.08 166.723C192.08 178.339 195.03 190.21 196.315 201.781C198.249 219.186 200.977 238.725 206.276 255.506C210.172 267.843 211.036 280.939 214.982 293.231C218.23 303.352 222.542 313.12 225.962 323.192C232.501 342.445 237.287 362.11 243.609 381.544C254.545 415.162 270.474 446.533 281.804 479.895C284.975 489.231 285.821 498.637 289.02 508.287C299.224 539.064 313.15 568.833 326.196 598.482C332.051 611.788 338.121 626.819 345.255 639.501C348.943 646.058 348.83 654.016 353.019 660.599C355.39 664.324 359.052 671.158 360 675.422C361.152 680.608 367.657 683.957 371.058 687.736C375.672 692.863 374.457 703.213 379.842 708.598" stroke="#597234" stroke-width="5" stroke-linecap="round"/>
</svg>
