<svg width="347" height="824" viewBox="0 0 347 824" fill="none" xmlns="http://www.w3.org/2000/svg">
<path d="M27.9707 821.227C27.9707 782.914 31.6222 748.236 41.1281 711.269C51.8933 669.404 73.4079 630.562 82.9496 588.154C93.5631 540.983 102.082 494.358 118.427 448.592C121.278 440.61 127.356 430.132 127.356 421.572C127.356 397.892 135.368 376.891 142.158 354.376C147.352 337.153 154.363 321.813 157.43 304.331C162.178 277.267 173.817 250.603 181.865 224.447C188.388 203.246 190.612 180.715 195.492 159.365C207.036 108.861 209.824 54.2398 209.824 2.88672" stroke="#597234" stroke-width="5" stroke-linecap="round"/>
<path d="M161.189 311.614C172.865 261.022 200.522 216.392 226.271 172.522C244.902 140.781 273.991 117.624 294.408 86.9997C302.176 75.3478 316.021 60.5757 328.241 54.1063C330.496 52.9123 342.439 44.6519 342.925 46.3529C346.679 59.4892 341.32 75.879 335.524 87.4696C323.411 111.696 303.642 132.985 285.832 153.021C268.89 172.081 253.169 192.382 237.197 212.347C226.262 226.015 217.051 241.243 205.126 254.051C196.925 262.859 190.752 275.581 181.278 282.95C172.489 289.786 154.846 291.205 154.846 305.271" stroke="#597234" stroke-width="5" stroke-linecap="round"/>
<path d="M72.8464 386.096C84.889 429.75 82.9494 478.126 82.9494 523.073C82.9494 538.995 74.4911 582.344 74.4911 566.422C74.4911 555.115 72.6379 540.521 69.2047 529.534C64.7248 515.199 64.8357 497.72 58.6318 484.071C48.276 461.288 43.5895 436.578 31.1423 414.173C24.667 402.517 22.1465 389.015 16.2228 377.168C9.10149 362.925 8.8939 351.683 5.76743 336.051C1.44179 314.423 2.78416 285.014 5.18005 263.451C6.55751 251.053 8.93929 239.578 8.93929 227.033C8.93929 221.237 9.27749 221.112 12.6985 225.388C18.5338 232.682 24.5648 248.292 27.9385 257.024L27.9705 257.107C32.4388 268.672 32.4468 282.519 36.4288 294.699C46.7567 326.291 64.0127 354.073 72.8464 386.096Z" stroke="#597234" stroke-width="5" stroke-linecap="round"/>
</svg>
