<svg width="402" height="219" viewBox="0 0 402 219" fill="none" xmlns="http://www.w3.org/2000/svg">
<path d="M216.46 139.807C209.725 160.761 209.562 182.106 209.562 203.912C211.262 206.462 211.459 207.189 211.632 210.12C211.68 210.943 215.866 212.879 216.843 212.879C222.902 212.879 227.388 211.73 233.166 210.12C239.815 208.267 247.084 209.851 253.704 207.744C269.57 202.696 287.478 204.752 302.674 196.862C306.338 194.96 309.853 192.631 313.403 190.501C318.307 187.559 321.883 183.242 326.699 180.232C336.478 174.121 346.252 166.403 353.866 157.702C359.175 151.634 364.918 145.444 368.887 138.39C372.356 132.221 374.241 125.467 376.474 118.771C384.585 94.4367 393.245 69.8649 396.092 44.2434C397.457 31.9613 399.234 18.9797 399.234 6.65392C399.234 0.366966 367.648 3.12694 363.446 3.24366C353.696 3.51448 344.666 5.12003 335.627 8.87634C326.834 12.5306 318.822 17.6988 310.644 22.5174C302.505 27.3134 294.187 31.883 286.542 37.4612C278.927 43.0185 274.958 51.4165 269.108 58.6891C258.475 71.9086 247.235 84.451 237.304 98.2328C228.262 110.781 221.182 125.115 216.46 139.807Z" stroke="#597234" stroke-width="5" stroke-linecap="round"/>
<path d="M208.29 216.42C189.083 216.42 171.311 211.485 153.754 203.777C146.256 200.485 138.392 198.31 130.625 195.65C113.746 189.867 99.9201 179.207 85.6721 168.758C71.8211 158.601 56.5109 150.658 43.9299 138.706C35.5996 130.792 27.4687 122.696 19.3462 114.574C15.704 110.931 10.9707 106.83 9.41239 101.73C3.14018 81.2026 -2.11509 55.7556 10.7168 36.5077C14.9161 30.2089 17.2132 23.2524 21.0019 16.8407C26.184 8.07091 45.7415 8.42896 54.2651 8.76322C61.4282 9.04412 67.4318 12.2057 73.3301 16.0882C81.6321 21.5528 89.8301 27.3302 97.964 33.0459C106.92 39.3393 115.613 46.0819 125.106 51.559C140.21 60.2724 148.717 79.4578 164.741 86.3775C168.236 87.8865 171.511 89.8324 174.424 92.2977C176.586 94.1267 181.086 100.085 183.505 100.777C188.856 102.305 193.732 104.605 198.557 108.051C200.721 109.597 202.016 111.588 203.273 113.921C205.703 118.434 208.856 124.715 210.096 129.675C214.699 148.088 212.805 168.543 212.805 187.472C212.805 193.828 210.999 199.988 210.999 206.286C210.999 211.126 211.752 214.238 207.387 216.42" stroke="#597234" stroke-width="5" stroke-linecap="round"/>
</svg>
