<svg width="313" height="607" viewBox="0 0 313 607" fill="none" xmlns="http://www.w3.org/2000/svg">
<path d="M21.6477 526.687C31.7475 555.304 46.108 583.62 69.4023 603.717C76.6575 606.458 82.1391 600.666 89.1629 596.764C92.8714 594.704 96.858 590.899 99.775 587.982C103.485 584.271 101.682 578.432 103.617 574.076C108.111 563.966 96.2602 548.578 93.7371 539.495C91.4604 531.299 86.7397 523.798 84.2227 515.618C81.7074 507.443 74.3626 501.712 71.415 493.753C66.792 481.271 58.3608 467.093 57.8754 453.5C57.5807 445.249 57.702 437.361 56.2287 429.166C55.2898 423.943 53.4804 417.244 54.6734 411.875C55.8875 406.412 56.2287 401.674 56.2287 395.866C56.2287 383.771 55.1881 370.186 59.1561 358.723C63.289 346.784 72.3162 333.807 80.1974 323.776C86.046 316.333 93.5297 309.99 99.4091 302.369C104.467 295.812 111.342 287.163 118.804 283.432C131.787 276.94 148.09 264.849 158.325 254.614C166.381 246.558 176.092 239.403 183.025 230.737C186.703 226.14 196.313 222.548 201.139 219.302C214.515 210.303 230.488 199.01 239.745 185.544C250.05 170.556 272.819 149.192 269.582 130.582C266.268 111.524 239.085 100.815 246.515 81.7098C255.232 59.2954 274.224 43.0954 292.44 28.1916C298.292 23.4039 312.954 1.81887 309.674 3.5453C301.684 7.75042 259.536 22.9746 252.193 28.1916C239.508 37.2052 234.891 41.9098 221.28 49.4321C205.815 57.9785 193.32 78.2979 177.719 86.6499C149.077 101.984 121.89 109.351 105.63 140.991C91.6858 168.126 87.7631 194.356 87.5162 224.974C87.4412 234.268 88.0048 243.683 87.5162 252.968C87.393 255.307 85.6102 251.772 85.0461 251.321C82.6257 249.385 90.4436 230.737 85.0461 230.737C82.8966 224.718 86.1136 215.356 82.1672 210.282C77.8663 204.752 69.7424 199.343 66.2273 193.412C61.287 185.075 48.4897 178.877 47.9951 168.985C47.5136 159.356 45.8498 145.045 49.2759 136.051C53.9534 123.773 51.5044 107.037 53.8501 93.9686C55.2043 86.4238 60.0222 73.9915 57.7839 66.1574C56.3125 61.0077 29.1282 60.3025 24.9411 60.3025C16.2378 60.3025 21.8279 78.8917 21.6477 85.918C21.3287 98.3612 17.7986 111.115 16.7991 123.609C14.9609 146.586 10.679 162.527 10.679 185.544C10.679 195.193 14.0199 211.124 18.3543 220.033C20.5188 224.483 23.6129 235.199 29.0579 236.409C37.5948 238.306 44.2495 246.312 51.2885 251.321C57.7389 255.911 69.4023 263.357 69.4023 271.905C69.4023 289.671 54.7002 306.973 46.1654 321.672C30.1987 349.17 17.8152 378.868 4.81467 407.759C1.35173 415.454 3.5339 426.946 3.5339 435.204C3.5339 467.647 10.8466 496.084 21.6477 526.687Z" stroke="#597234" stroke-width="5" stroke-linecap="round"/>
</svg>
