<svg width="826" height="623" viewBox="0 0 826 623" fill="none" xmlns="http://www.w3.org/2000/svg">
<path d="M413.698 244.054C413.698 267.773 409.941 291.206 409.941 314.814C409.941 332.523 408.127 350.26 405.21 367.763C403.049 380.728 404.932 396.126 404.932 409.231C404.932 434.446 403.098 459.344 402.357 484.514C401.981 497.299 401.174 509.974 401.174 522.782C401.174 529.634 401.332 508.73 401.453 507.057C403.503 478.575 412.446 450.045 412.446 421.477C412.446 407.71 416.962 393.566 420.934 380.565C425.638 365.171 429.123 349.336 434.711 334.226C443.495 310.478 447.711 285.703 454.054 261.309C457.131 249.474 461.059 239.553 465.603 228.399C468.799 220.554 471.554 210.048 472.492 201.611C472.852 198.367 474.966 195.748 476.318 192.705C478.277 188.299 479.055 183.417 481.05 178.929C484.061 172.153 489.631 167.449 492.6 160.769C497.327 150.132 504.413 145.163 512.012 136.904C520.78 127.374 527.065 114.761 533.65 103.785C535.357 100.94 533.929 110.417 533.929 113.735C533.929 122.525 534.451 131.448 533.303 140.174C529.456 169.41 533.351 199.292 523.631 227.772C511.436 263.507 499.93 299.754 485.085 334.505C475.104 357.87 465.183 381.264 455.236 404.639C454.166 407.154 450.342 416.673 453.566 407.561C460.612 387.65 467.044 367.541 474.37 347.724C489.496 306.811 508.326 267.396 527.945 228.468C538.636 207.256 550.99 189.421 567.813 172.597C576.865 163.545 585.783 154.328 595.018 145.462C597.513 143.067 602.595 140.278 604.063 136.973C604.967 134.939 606.005 133.535 607.89 132.242C621.476 122.926 635.247 113.786 648.941 104.62C675.492 86.8474 702.947 70.5394 729.303 52.5061C756.253 34.0667 787.369 16.3962 817.945 4.84539C822.6 3.08682 824.384 1.88568 820.45 7.07187C808.583 22.7144 793.285 35.7185 778.703 48.7489C757.68 67.5359 737.044 86.7029 718.031 107.542C696.52 131.12 676.18 155.51 654.159 178.651C635.77 197.975 618.069 217.306 601.837 238.487C596.62 245.294 591.378 252.072 585.695 258.387C566.065 280.197 544.844 301.02 529.476 326.225C521.654 339.053 514.782 352.6 507.628 365.815C496.59 386.206 484.659 406.47 476.318 428.156C470.938 442.145 464.481 455.583 458.785 469.416C455.238 478.03 453.742 487.273 450.018 495.786C440.867 516.701 432.694 538.226 424.413 559.519C420.148 570.487 418.125 583.601 415.229 595.699C413.526 602.815 413.079 610.981 411.124 617.825C408.036 628.634 410.025 595.368 409.315 584.149C407.897 561.741 402.052 540.796 394.912 519.581C386.525 494.658 371.465 472.385 361.098 448.195" stroke="#597234" stroke-width="5" stroke-linecap="round"/>
<path d="M361.096 448.194C354.222 430.625 347.994 412.851 339.11 396.15C334.771 387.993 330.472 379.74 325.751 371.797C320.617 363.16 313.902 355.702 309.748 346.471C304.851 335.59 302.777 324.419 297.85 313.422C278.216 269.596 258.511 225.802 238.848 181.989C230.867 164.206 223.022 146.123 213.452 129.11C211.237 125.172 210.901 124.664 206.773 123.266C197.109 119.992 187.587 112.058 179.498 106.01C163.056 93.717 146.549 85.4307 128.289 76.3008C113.24 68.7759 97.6401 62.6874 82.0897 56.1928C66.8573 49.8311 49.6419 41.1641 32.6895 41.1641C23.2823 41.1641 -4.6879 44.9213 4.71925 44.9213C41.5875 44.9213 78.484 44.4642 115.348 44.9908C133.227 45.2463 150.778 46.5234 168.505 48.6089C175.263 49.4039 182.611 49.4371 188.822 52.4357C199.633 57.6548 208.438 63.5477 216.514 72.474C220.209 76.5577 222.245 86.6213 224.585 91.8862C227.397 98.2139 236.444 105.103 240.449 111.159C248.107 122.743 256.963 134.554 267.862 143.304C271.352 146.106 275.971 149.84 278.16 153.88C292.768 180.849 308.666 206.507 324.638 232.642C327.027 236.552 330.464 240.69 332.013 245.027C333.95 250.451 332.722 257.638 334.1 263.395C339.323 285.207 348.016 303.055 357.896 322.815C361.215 329.454 362.714 334.323 364.993 341.322C370.929 359.555 374.397 378.388 380.161 396.567C383.584 407.363 389.944 418.071 391.084 429.477C391.745 436.088 389.448 443.922 392.406 450.003C394.649 454.612 396.749 459.303 398.947 463.918C400.357 466.879 399.802 470.156 401.173 473.242C403.702 478.932 403.604 488.057 408.061 492.515C410.563 495.016 410.18 498.341 412.166 501.073C412.998 502.216 412.445 504.917 412.445 506.291C412.445 508.822 413.517 501.337 414.254 498.916C417.517 488.193 421.648 478.252 425.456 467.675C429.79 455.636 434.144 443.772 439.302 431.982C442.459 424.766 447.903 418.606 451.269 411.874" stroke="#597234" stroke-width="5" stroke-linecap="round"/>
</svg>
