<svg width="109" height="788" viewBox="0 0 109 788" fill="none" xmlns="http://www.w3.org/2000/svg">
<path d="M106.144 3.04688C106.144 56.8464 83.9324 103.817 65.8667 152.595C62.7842 160.917 55.2571 168.699 49.8712 175.624C37.8843 191.036 34.3263 216.539 29.3469 234.114C20.5279 265.24 18.6187 297.673 9.8826 329.123C1.4641 359.429 3.81204 389.974 3.81204 421.434C3.81204 466.272 3.81204 511.111 3.81204 555.95C3.81204 570.321 1.85647 586.353 4.67926 600.467C7.64844 615.313 11.9431 630.485 16.9167 644.695C23.1253 662.434 25.1445 680.891 30.6959 698.656C35.1707 712.975 35.5636 727.605 39.85 741.535C43.4591 753.265 38.1648 765.151 46.4023 775.742C51.8731 782.776 53.5635 785.282 62.7832 785.282C67.9771 785.282 75.8487 785.23 76.6588 778.344C78.7838 760.281 77.9884 744.454 73.5753 726.311C61.8063 677.927 35.4774 634.655 24.6254 585.821C22.2545 575.152 20.2734 563.651 17.3022 553.252C15.4466 546.757 15.6167 539.968 12.8697 533.787C9.32364 525.809 5.54648 510.997 5.54648 502.567" stroke="#597234" stroke-width="5" stroke-linecap="round"/>
</svg>
