<svg width="295" height="415" viewBox="0 0 295 415" fill="none" xmlns="http://www.w3.org/2000/svg">
<path d="M71.1922 262.534C66.3886 278.351 58.4082 292.36 60.2398 309.107C60.2398 314.933 60.2404 320.759 60.2404 326.585C60.2404 333.159 61.5986 339.491 62.6741 345.944C63.5225 351.034 62.3707 357.036 64.4441 361.874C65.8175 365.079 70.8585 367.479 74.179 367.848C79.7697 368.469 84.8137 371.83 90.6619 371.83C108.255 371.83 125.456 370.299 142.987 369.784C158.925 369.315 175.342 365.818 189.67 358.777C208.31 349.617 226.821 338.3 241.221 323.1C248.137 315.8 253.828 306.245 260.027 298.266C270.648 284.594 276.288 267.398 276.288 249.923C276.288 216.931 273.833 182.908 278.28 150.196C280.84 131.355 282.262 113.045 282.262 94.0543C282.262 69.4646 285.521 45.2769 290.172 21.1534C290.403 19.9513 294.377 3.62883 291.223 3.45359C287.604 3.25255 284.338 5.2317 281.377 7.10417C274.077 11.7202 268.184 18.2117 261.465 23.5871C249.921 32.8218 239.373 41.3641 228.941 51.7961C193.601 87.1367 155.96 120.299 119.424 154.4C115.091 158.444 112.815 163.204 109.579 168.172C99.9573 182.943 92.3238 198.289 86.6242 214.966C81.2377 230.726 76.0327 246.596 71.1922 262.534Z" stroke="#597234" stroke-width="5" stroke-linecap="round"/>
<path d="M3.19141 77.3125C8.54814 98.293 25.0575 116.46 36.8321 134.122C40.9 140.224 46.6328 146.479 49.1365 153.364C58.4989 179.111 68.776 204.895 69.1638 232.819C69.681 270.058 70.6882 307.288 63.8624 344.147C61.5327 356.728 58.4699 369.759 57.3176 382.435C56.7569 388.602 54.4053 394.622 53.9142 400.76C53.7067 403.355 55.2436 410.6 52.6707 411.887" stroke="#597234" stroke-width="5" stroke-linecap="round"/>
</svg>
